<mxfile host="app.diagrams.net" modified="2023-04-22T07:28:14.059Z" agent="Mozilla/5.0 (Windows NT 10.0; Win64; x64) AppleWebKit/537.36 (KHTML, like Gecko) Chrome/109.0.0.0 Safari/537.36 Edg/109.0.1518.70" etag="JbU0KrQz4tDUKHbIQPuy" version="21.2.1" type="github">
  <diagram name="第 1 页" id="3et0D_4nPYcRrtf5HTlJ">
    <mxGraphModel dx="1050" dy="549" grid="1" gridSize="10" guides="1" tooltips="1" connect="1" arrows="1" fold="1" page="1" pageScale="1" pageWidth="827" pageHeight="1169" math="0" shadow="0">
      <root>
        <mxCell id="0" />
        <mxCell id="1" parent="0" />
        <mxCell id="HJYo1_r6jcrZSlGr2hu9-20" value="&lt;font color=&quot;#23497d&quot; style=&quot;font-size: 18px;&quot;&gt;业务逻辑层&lt;/font&gt;" style="swimlane;whiteSpace=wrap;fillColor=#dae8fc;swimlaneFillColor=#BAC8D3;fontFamily=Tahoma;html=1;strokeColor=#6c8ebf;opacity=25;startSize=23;fontSize=18;swimlaneLine=1;direction=north;" vertex="1" parent="1">
          <mxGeometry x="54" y="180" width="720" height="160" as="geometry">
            <mxRectangle x="20" y="20" width="80" height="23" as="alternateBounds" />
          </mxGeometry>
        </mxCell>
        <mxCell id="YaCqZSCQr1VmPXh1abVq-24" value="地点搜索" style="whiteSpace=wrap;shadow=0;fontColor=#FFFFFF;fontFamily=Helvetica;fontStyle=0;html=1;fontSize=16;plain-purple;strokeColor=none;fillColor=#2f5b7c;gradientColor=none;spacing=6;verticalAlign=middle;direction=south;" parent="HJYo1_r6jcrZSlGr2hu9-20" vertex="1">
          <mxGeometry x="640" y="20" width="40" height="120" as="geometry" />
        </mxCell>
        <mxCell id="YaCqZSCQr1VmPXh1abVq-31" value="数据可视化" style="whiteSpace=wrap;shadow=0;fontColor=#FFFFFF;fontFamily=Helvetica;fontStyle=0;html=1;fontSize=16;plain-purple;strokeColor=none;fillColor=#2f5b7c;gradientColor=none;spacing=6;verticalAlign=middle;direction=south;horizontal=1;" parent="HJYo1_r6jcrZSlGr2hu9-20" vertex="1">
          <mxGeometry x="40" y="20" width="40" height="120" as="geometry" />
        </mxCell>
        <mxCell id="HJYo1_r6jcrZSlGr2hu9-46" value="" style="group" vertex="1" connectable="0" parent="HJYo1_r6jcrZSlGr2hu9-20">
          <mxGeometry x="105" y="10" width="510" height="140" as="geometry" />
        </mxCell>
        <mxCell id="YaCqZSCQr1VmPXh1abVq-23" value="" style="rounded=1;whiteSpace=wrap;html=1;fillColor=#12AAB5;opacity=50;" parent="HJYo1_r6jcrZSlGr2hu9-46" vertex="1">
          <mxGeometry width="509.99999999999994" height="140" as="geometry" />
        </mxCell>
        <mxCell id="YaCqZSCQr1VmPXh1abVq-29" value="企业单位影响分析" style="whiteSpace=wrap;shadow=0;fontColor=#FFFFFF;fontFamily=Helvetica;fontStyle=0;html=1;fontSize=16;plain-purple;strokeColor=none;fillColor=#2f5b7c;gradientColor=none;spacing=6;verticalAlign=middle;" parent="HJYo1_r6jcrZSlGr2hu9-46" vertex="1">
          <mxGeometry x="20.95" y="80" width="149.05" height="46.14" as="geometry" />
        </mxCell>
        <mxCell id="YaCqZSCQr1VmPXh1abVq-27" value="公共设施影响分析" style="whiteSpace=wrap;shadow=0;fontColor=#FFFFFF;fontFamily=Helvetica;fontStyle=0;html=1;fontSize=16;plain-purple;strokeColor=none;fillColor=#2f5b7c;gradientColor=none;spacing=6;verticalAlign=middle;" parent="HJYo1_r6jcrZSlGr2hu9-46" vertex="1">
          <mxGeometry x="181.54999999999998" y="80" width="146.9" height="46.14" as="geometry" />
        </mxCell>
        <mxCell id="YaCqZSCQr1VmPXh1abVq-30" value="应急救援建议和规划" style="whiteSpace=wrap;shadow=0;fontColor=#FFFFFF;fontFamily=Helvetica;fontStyle=0;html=1;fontSize=16;plain-purple;strokeColor=none;fillColor=#2f5b7c;gradientColor=none;spacing=6;verticalAlign=middle;" parent="HJYo1_r6jcrZSlGr2hu9-46" vertex="1">
          <mxGeometry x="340" y="80" width="162.13" height="46.14" as="geometry" />
        </mxCell>
        <mxCell id="YaCqZSCQr1VmPXh1abVq-28" value="降雨&amp;amp;内涝模拟" style="whiteSpace=wrap;shadow=0;fontColor=#FFFFFF;fontFamily=Helvetica;fontStyle=0;html=1;fontSize=16;plain-purple;strokeColor=none;fillColor=#2f5b7c;gradientColor=none;spacing=6;verticalAlign=middle;" parent="HJYo1_r6jcrZSlGr2hu9-46" vertex="1">
          <mxGeometry x="340" y="11.7" width="160" height="46.14" as="geometry" />
        </mxCell>
        <mxCell id="YaCqZSCQr1VmPXh1abVq-26" value="人口影响分析" style="whiteSpace=wrap;shadow=0;fontColor=#FFFFFF;fontFamily=Helvetica;fontStyle=0;html=1;fontSize=16;plain-purple;strokeColor=none;fillColor=#2f5b7c;gradientColor=none;spacing=6;verticalAlign=middle;" parent="HJYo1_r6jcrZSlGr2hu9-46" vertex="1">
          <mxGeometry x="181.55" y="11.7" width="148.45" height="46.14" as="geometry" />
        </mxCell>
        <mxCell id="YaCqZSCQr1VmPXh1abVq-25" value="道路交通影响分析" style="whiteSpace=wrap;shadow=0;fontColor=#FFFFFF;fontFamily=Helvetica;fontStyle=0;html=1;fontSize=16;plain-purple;strokeColor=none;fillColor=#2f5b7c;gradientColor=none;spacing=6;verticalAlign=middle;" parent="HJYo1_r6jcrZSlGr2hu9-46" vertex="1">
          <mxGeometry x="20.95" y="11.69" width="149.05" height="46.14" as="geometry" />
        </mxCell>
        <mxCell id="HJYo1_r6jcrZSlGr2hu9-14" value="&lt;font color=&quot;#23497d&quot; style=&quot;font-size: 18px;&quot;&gt;表现层&lt;/font&gt;" style="swimlane;whiteSpace=wrap;fillColor=#dae8fc;swimlaneFillColor=#BAC8D3;fontFamily=Tahoma;html=1;strokeColor=#6c8ebf;opacity=50;fontSize=18;swimlaneLine=1;direction=north;container=0;" vertex="1" parent="1">
          <mxGeometry x="54" y="20" width="720" height="160" as="geometry">
            <mxRectangle x="20" y="20" width="80" height="23" as="alternateBounds" />
          </mxGeometry>
        </mxCell>
        <mxCell id="YaCqZSCQr1VmPXh1abVq-17" value="" style="rounded=1;whiteSpace=wrap;html=1;fillColor=#12AAB5;opacity=50;" parent="HJYo1_r6jcrZSlGr2hu9-14" vertex="1">
          <mxGeometry x="40" y="10" width="640" height="137" as="geometry" />
        </mxCell>
        <mxCell id="YaCqZSCQr1VmPXh1abVq-21" value="数据可视化&lt;br style=&quot;font-size: 16px;&quot;&gt;Echarts" style="whiteSpace=wrap;strokeColor=none;fillColor=#2f5b7c;shadow=0;fontColor=#FFFFFF;fontFamily=Helvetica;fontStyle=0;html=1;fontSize=16;spacing=6;verticalAlign=middle;" parent="HJYo1_r6jcrZSlGr2hu9-14" vertex="1">
          <mxGeometry x="85" y="65" width="160" height="60" as="geometry" />
        </mxCell>
        <mxCell id="YaCqZSCQr1VmPXh1abVq-18" value="可视化框架&lt;br style=&quot;font-size: 16px;&quot;&gt;ArcGIS API For JS" style="whiteSpace=wrap;shadow=0;fontColor=#FFFFFF;fontFamily=Helvetica;fontStyle=0;html=1;fontSize=16;plain-purple;strokeColor=none;fillColor=#2f5b7c;gradientColor=none;spacing=6;verticalAlign=middle;" parent="HJYo1_r6jcrZSlGr2hu9-14" vertex="1">
          <mxGeometry x="285" y="65" width="160" height="60" as="geometry" />
        </mxCell>
        <mxCell id="YaCqZSCQr1VmPXh1abVq-19" value="&lt;h3 style=&quot;font-size: 16px;&quot;&gt;Web前端&lt;/h3&gt;" style="rounded=0;whiteSpace=wrap;html=1;fillColor=none;strokeColor=none;fontColor=#2F5B7C;fontSize=16;" parent="HJYo1_r6jcrZSlGr2hu9-14" vertex="1">
          <mxGeometry x="305" y="20" width="120" height="28.5" as="geometry" />
        </mxCell>
        <mxCell id="YaCqZSCQr1VmPXh1abVq-20" value="三维可视化&lt;br style=&quot;font-size: 16px;&quot;&gt;Three.js" style="whiteSpace=wrap;strokeColor=none;fillColor=#2f5b7c;shadow=0;fontColor=#FFFFFF;fontFamily=Helvetica;fontStyle=0;html=1;fontSize=16;spacing=6;verticalAlign=middle;" parent="HJYo1_r6jcrZSlGr2hu9-14" vertex="1">
          <mxGeometry x="485" y="65" width="160" height="60" as="geometry" />
        </mxCell>
        <mxCell id="HJYo1_r6jcrZSlGr2hu9-1" value="&lt;font color=&quot;#23497d&quot; style=&quot;font-size: 18px;&quot;&gt;应用支持层&lt;/font&gt;" style="swimlane;whiteSpace=wrap;fillColor=#dae8fc;swimlaneFillColor=#BAC8D3;fontFamily=Tahoma;html=1;strokeColor=#6c8ebf;opacity=50;fontSize=18;swimlaneLine=1;direction=north;" vertex="1" parent="1">
          <mxGeometry x="54" y="340" width="720" height="160" as="geometry">
            <mxRectangle x="20" y="20" width="80" height="23" as="alternateBounds" />
          </mxGeometry>
        </mxCell>
        <mxCell id="HJYo1_r6jcrZSlGr2hu9-41" value="" style="group" vertex="1" connectable="0" parent="HJYo1_r6jcrZSlGr2hu9-1">
          <mxGeometry x="40" y="15.75" width="574" height="128.5" as="geometry" />
        </mxCell>
        <mxCell id="HJYo1_r6jcrZSlGr2hu9-52" value="" style="group" vertex="1" connectable="0" parent="HJYo1_r6jcrZSlGr2hu9-41">
          <mxGeometry x="14" width="399.99999999999994" height="128.5" as="geometry" />
        </mxCell>
        <mxCell id="YaCqZSCQr1VmPXh1abVq-5" value="" style="rounded=1;whiteSpace=wrap;html=1;fillColor=#12AAB5;opacity=50;" parent="HJYo1_r6jcrZSlGr2hu9-52" vertex="1">
          <mxGeometry width="399.99999999999994" height="128.5" as="geometry" />
        </mxCell>
        <mxCell id="YaCqZSCQr1VmPXh1abVq-6" value="&lt;h3 style=&quot;font-size: 16px;&quot;&gt;Web后端&lt;/h3&gt;" style="rounded=0;whiteSpace=wrap;html=1;fillColor=none;strokeColor=none;fontColor=#2F5B7C;fontSize=16;" parent="HJYo1_r6jcrZSlGr2hu9-52" vertex="1">
          <mxGeometry x="33.910034602076124" y="10.063291139240507" width="332.1799307958477" height="28.680379746835445" as="geometry" />
        </mxCell>
        <mxCell id="YaCqZSCQr1VmPXh1abVq-7" value="Flask框架" style="whiteSpace=wrap;shadow=0;fontColor=#FFFFFF;fontFamily=Helvetica;fontStyle=0;html=1;fontSize=16;plain-purple;strokeColor=none;fillColor=#2f5b7c;gradientColor=none;spacing=6;verticalAlign=middle;" parent="HJYo1_r6jcrZSlGr2hu9-52" vertex="1">
          <mxGeometry x="21.959999999999997" y="38.74" width="120" height="28.5" as="geometry" />
        </mxCell>
        <mxCell id="YaCqZSCQr1VmPXh1abVq-8" value="ArcPy模块" style="whiteSpace=wrap;shadow=0;fontColor=#FFFFFF;fontFamily=Helvetica;fontStyle=0;html=1;fontSize=16;plain-purple;strokeColor=none;fillColor=#2f5b7c;gradientColor=none;spacing=6;verticalAlign=middle;" parent="HJYo1_r6jcrZSlGr2hu9-52" vertex="1">
          <mxGeometry x="21.959999999999997" y="81.26" width="120" height="28.5" as="geometry" />
        </mxCell>
        <mxCell id="HJYo1_r6jcrZSlGr2hu9-50" value="ArcSWAT" style="whiteSpace=wrap;shadow=0;fontColor=#FFFFFF;fontFamily=Helvetica;fontStyle=0;html=1;fontSize=16;plain-purple;strokeColor=none;fillColor=#2f5b7c;gradientColor=none;spacing=6;verticalAlign=middle;" vertex="1" parent="HJYo1_r6jcrZSlGr2hu9-52">
          <mxGeometry x="258.05" y="38.739999999999995" width="120" height="28.5" as="geometry" />
        </mxCell>
        <mxCell id="HJYo1_r6jcrZSlGr2hu9-49" value="SWMM" style="whiteSpace=wrap;shadow=0;fontColor=#FFFFFF;fontFamily=Helvetica;fontStyle=0;html=1;fontSize=16;plain-purple;strokeColor=none;fillColor=#2f5b7c;gradientColor=none;spacing=6;verticalAlign=middle;" vertex="1" parent="HJYo1_r6jcrZSlGr2hu9-52">
          <mxGeometry x="258.05" y="81.26" width="120" height="28.5" as="geometry" />
        </mxCell>
        <mxCell id="HJYo1_r6jcrZSlGr2hu9-51" value="ArcGIS Server" style="whiteSpace=wrap;shadow=0;fontColor=#FFFFFF;fontFamily=Helvetica;fontStyle=0;html=1;fontSize=16;plain-purple;strokeColor=none;fillColor=#2f5b7c;gradientColor=none;spacing=6;verticalAlign=middle;" vertex="1" parent="HJYo1_r6jcrZSlGr2hu9-52">
          <mxGeometry x="158.05" y="45.62" width="80" height="54.38" as="geometry" />
        </mxCell>
        <mxCell id="YaCqZSCQr1VmPXh1abVq-12" value="中国气象网" style="whiteSpace=wrap;shadow=0;fontColor=#FFFFFF;fontFamily=Helvetica;fontStyle=0;html=1;fontSize=16;plain-purple;strokeColor=none;fillColor=#2f5b7c;gradientColor=none;spacing=6;verticalAlign=middle;" parent="HJYo1_r6jcrZSlGr2hu9-1" vertex="1">
          <mxGeometry x="520" y="25.81" width="120" height="28.5" as="geometry" />
        </mxCell>
        <mxCell id="YaCqZSCQr1VmPXh1abVq-11" value="网络爬虫" style="whiteSpace=wrap;shadow=0;fontColor=#FFFFFF;fontFamily=Helvetica;fontStyle=0;html=1;fontSize=16;plain-purple;strokeColor=none;fillColor=#2f5b7c;gradientColor=none;spacing=6;verticalAlign=middle;" parent="HJYo1_r6jcrZSlGr2hu9-1" vertex="1">
          <mxGeometry x="520" y="100" width="120" height="28.5" as="geometry" />
        </mxCell>
        <mxCell id="HJYo1_r6jcrZSlGr2hu9-55" value="" style="edgeStyle=segmentEdgeStyle;strokeColor=#2F5B7C;strokeWidth=3;html=1;endArrow=block;endFill=1;entryX=0.75;entryY=1;entryDx=0;entryDy=0;" edge="1" parent="HJYo1_r6jcrZSlGr2hu9-1" source="YaCqZSCQr1VmPXh1abVq-11" target="YaCqZSCQr1VmPXh1abVq-12">
          <mxGeometry x="-658.5" y="-727" width="100" height="100" as="geometry">
            <mxPoint x="375.5" y="-389.5" as="sourcePoint" />
            <mxPoint x="375.5" y="-419.5" as="targetPoint" />
            <Array as="points" />
          </mxGeometry>
        </mxCell>
        <mxCell id="HJYo1_r6jcrZSlGr2hu9-32" value="&lt;font color=&quot;#23497d&quot; style=&quot;font-size: 18px;&quot;&gt;数据层&lt;/font&gt;" style="swimlane;whiteSpace=wrap;fillColor=#dae8fc;swimlaneFillColor=#BAC8D3;fontFamily=Tahoma;html=1;strokeColor=#6c8ebf;opacity=25;fontSize=18;swimlaneLine=1;strokeWidth=3;direction=north;" vertex="1" parent="1">
          <mxGeometry x="54" y="500" width="720" height="170" as="geometry">
            <mxRectangle x="20" y="20" width="80" height="23" as="alternateBounds" />
          </mxGeometry>
        </mxCell>
        <mxCell id="HJYo1_r6jcrZSlGr2hu9-40" value="" style="group" vertex="1" connectable="0" parent="HJYo1_r6jcrZSlGr2hu9-32">
          <mxGeometry x="80" y="10" width="580" height="140" as="geometry" />
        </mxCell>
        <mxCell id="YaCqZSCQr1VmPXh1abVq-46" value="" style="rounded=1;whiteSpace=wrap;html=1;fillColor=#12AAB5;opacity=50;" parent="HJYo1_r6jcrZSlGr2hu9-40" vertex="1">
          <mxGeometry width="580" height="140" as="geometry" />
        </mxCell>
        <mxCell id="YaCqZSCQr1VmPXh1abVq-47" value="&lt;h3 style=&quot;font-size: 16px;&quot;&gt;MongoDB&lt;/h3&gt;" style="rounded=0;whiteSpace=wrap;html=1;fillColor=none;strokeColor=none;fontColor=#2F5B7C;fontSize=16;" parent="HJYo1_r6jcrZSlGr2hu9-40" vertex="1">
          <mxGeometry x="49.165674740484434" y="10" width="481.6608996539793" height="15.96" as="geometry" />
        </mxCell>
        <mxCell id="YaCqZSCQr1VmPXh1abVq-35" value="地面模型数据库" style="whiteSpace=wrap;strokeColor=none;fillColor=#2f5b7c;shadow=0;fontColor=#FFFFFF;fontFamily=Helvetica;fontStyle=0;html=1;fontSize=16;spacing=6;verticalAlign=middle;" parent="HJYo1_r6jcrZSlGr2hu9-40" vertex="1">
          <mxGeometry x="40" y="30" width="160" height="80" as="geometry" />
        </mxCell>
        <mxCell id="YaCqZSCQr1VmPXh1abVq-36" value="气象数据库" style="whiteSpace=wrap;strokeColor=none;fillColor=#2f5b7c;shadow=0;fontColor=#FFFFFF;fontFamily=Helvetica;fontStyle=0;html=1;fontSize=16;spacing=6;verticalAlign=middle;" parent="HJYo1_r6jcrZSlGr2hu9-40" vertex="1">
          <mxGeometry x="360" y="30" width="160" height="80" as="geometry" />
        </mxCell>
        <mxCell id="HJYo1_r6jcrZSlGr2hu9-57" value="" style="edgeStyle=segmentEdgeStyle;strokeColor=#2F5B7C;strokeWidth=3;html=1;endArrow=block;endFill=1;exitX=0.25;exitY=1;exitDx=0;exitDy=0;" edge="1" parent="1" source="YaCqZSCQr1VmPXh1abVq-11">
          <mxGeometry x="-260" y="-298.5" width="100" height="100" as="geometry">
            <mxPoint x="614" y="400" as="sourcePoint" />
            <mxPoint x="604" y="540" as="targetPoint" />
            <Array as="points" />
          </mxGeometry>
        </mxCell>
        <mxCell id="HJYo1_r6jcrZSlGr2hu9-54" value="" style="edgeStyle=segmentEdgeStyle;strokeColor=#2F5B7C;strokeWidth=3;html=1;endArrow=block;endFill=1;entryX=0.25;entryY=0;entryDx=0;entryDy=0;" edge="1" parent="1" target="YaCqZSCQr1VmPXh1abVq-11">
          <mxGeometry x="-270" y="-308.5" width="100" height="100" as="geometry">
            <mxPoint x="604" y="390" as="sourcePoint" />
            <mxPoint x="378.5" y="-49.5" as="targetPoint" />
            <Array as="points" />
          </mxGeometry>
        </mxCell>
        <mxCell id="HJYo1_r6jcrZSlGr2hu9-56" value="" style="edgeStyle=segmentEdgeStyle;strokeColor=#2F5B7C;strokeWidth=3;html=1;endArrow=block;endFill=1;" edge="1" parent="1" source="YaCqZSCQr1VmPXh1abVq-36">
          <mxGeometry x="-674.5" y="-1217" width="100" height="100" as="geometry">
            <mxPoint x="674" y="450" as="sourcePoint" />
            <mxPoint x="634" y="470" as="targetPoint" />
            <Array as="points" />
          </mxGeometry>
        </mxCell>
      </root>
    </mxGraphModel>
  </diagram>
</mxfile>
